<?xml version="1.0" standalone="no"?>
<!DOCTYPE svg PUBLIC "-//W3C//DTD SVG 20010904//EN"
 "http://www.w3.org/TR/2001/REC-SVG-20010904/DTD/svg10.dtd">
<svg version="1.0" xmlns="http://www.w3.org/2000/svg"
 width="200.000000pt" height="200.000000pt" viewBox="0 0 200.000000 200.000000"
 preserveAspectRatio="xMidYMid meet">

<g transform="translate(0.000000,200.000000) scale(0.100000,-0.100000)"
fill="#000000" stroke="none">
<path d="M695 1798 c-3 -7 -6 -62 -7 -123 l-3 -110 -162 -3 -163 -2 -2 -663
-3 -662 -115 -5 c-63 -3 -114 -8 -112 -12 1 -5 2 -12 2 -18 0 -7 296 -10 869
-10 736 0 870 2 874 14 3 8 3 17 0 20 -4 3 -62 6 -130 6 l-123 0 0 534 c0 313
-4 537 -9 540 -5 4 -46 -7 -91 -24 -45 -16 -83 -30 -86 -30 -2 0 -5 125 -6
278 l-3 277 -363 3 c-285 2 -364 0 -367 -10z m695 -295 l0 -268 -177 -60 c-98
-33 -183 -61 -190 -63 -10 -3 -13 48 -15 220 l-3 223 -137 3 -138 3 0 104 0
105 330 0 330 0 0 -267z m-420 -628 l0 -645 -70 0 -70 0 0 210 0 210 -162 -2
-163 -3 -3 -207 -2 -208 -50 0 -50 0 0 645 0 645 285 0 285 0 0 -645z m610
-135 l0 -510 -285 0 -285 0 2 417 3 417 270 92 c149 51 276 93 283 93 9 1 12
-107 12 -509z m-930 -199 c0 -49 -4 -72 -15 -81 -19 -16 -19 -54 0 -70 12 -10
15 -30 13 -84 l-3 -71 -47 -3 -48 -3 0 190 0 191 50 0 50 0 0 -69z m140 -121
l0 -190 -50 0 -50 0 0 79 c0 44 5 83 10 86 6 3 10 17 10 30 0 13 -4 27 -10 30
-5 3 -10 40 -10 81 l0 74 50 0 50 0 0 -190z"/>
<path d="M1117 1743 c-4 -3 -7 -43 -7 -89 0 -96 -3 -94 110 -94 113 0 110 -2
110 95 0 66 -3 84 -16 89 -21 8 -189 8 -197 -1z m173 -88 l0 -45 -70 0 -70 0
0 45 0 45 70 0 70 0 0 -45z"/>
<path d="M782 1728 c-25 -25 7 -38 94 -38 l84 0 0 -35 c0 -38 25 -59 41 -34
13 21 11 93 -3 107 -16 16 -200 16 -216 0z"/>
<path d="M1117 1443 c-4 -3 -7 -44 -7 -90 l0 -83 110 0 110 0 0 84 c0 67 -3
85 -16 90 -21 8 -189 8 -197 -1z m173 -88 l0 -45 -70 0 -70 0 0 45 0 45 70 0
70 0 0 -45z"/>
<path d="M447 1444 c-14 -14 -8 -161 7 -173 9 -8 46 -11 103 -9 l88 3 0 90 0
90 -95 3 c-53 1 -99 0 -103 -4z m163 -84 l0 -50 -65 0 -65 0 0 43 c0 24 3 47
7 50 3 4 33 7 65 7 l58 0 0 -50z"/>
<path d="M722 1438 c-16 -16 -16 -150 0 -166 7 -7 44 -12 98 -12 54 0 91 5 98
12 7 7 12 41 12 83 0 42 -5 76 -12 83 -7 7 -44 12 -98 12 -54 0 -91 -5 -98
-12z m158 -78 l0 -50 -60 0 -60 0 0 50 0 50 60 0 60 0 0 -50z"/>
<path d="M444 1157 c-3 -8 -4 -47 -2 -88 l3 -74 103 -3 102 -3 0 91 0 90 -100
0 c-75 0 -102 -3 -106 -13z m166 -77 l0 -50 -65 0 -65 0 0 43 c0 24 3 47 7 50
3 4 33 7 65 7 l58 0 0 -50z"/>
<path d="M714 1157 c-3 -8 -4 -47 -2 -88 l3 -74 99 -3 c73 -2 102 1 108 10 9
15 11 129 2 152 -5 13 -24 16 -105 16 -74 0 -101 -3 -105 -13z m166 -77 l0
-50 -60 0 -60 0 0 50 0 50 60 0 60 0 0 -50z"/>
<path d="M444 877 c-3 -8 -4 -47 -2 -88 l3 -74 103 -3 102 -3 0 91 0 90 -100
0 c-75 0 -102 -3 -106 -13z m166 -77 l0 -51 -62 3 -63 3 -3 48 -3 47 65 0 66
0 0 -50z"/>
<path d="M714 877 c-3 -8 -4 -47 -2 -88 l3 -74 99 -3 c73 -2 102 1 108 10 9
15 11 129 2 152 -5 13 -24 16 -105 16 -74 0 -101 -3 -105 -13z m166 -77 l0
-50 -60 0 -60 0 0 50 0 50 60 0 60 0 0 -50z"/>
<path d="M1055 1007 c-3 -12 -5 -52 -3 -87 l3 -65 105 0 105 0 3 65 c5 112 8
110 -108 110 -95 0 -100 -1 -105 -23z m165 -67 l0 -50 -60 0 -60 0 0 50 0 50
60 0 60 0 0 -50z"/>
<path d="M1330 940 l0 -91 103 3 102 3 0 85 0 85 -102 3 -103 3 0 -91z m168
-2 l3 -48 -65 0 -66 0 0 50 0 51 63 -3 62 -3 3 -47z"/>
<path d="M1055 747 c-3 -12 -5 -52 -3 -87 l3 -65 105 0 105 0 3 65 c5 112 8
110 -108 110 -95 0 -100 -1 -105 -23z m165 -67 l0 -50 -60 0 -60 0 0 50 0 50
60 0 60 0 0 -50z"/>
<path d="M1330 680 l0 -91 103 3 102 3 0 85 0 85 -102 3 -103 3 0 -91z m168
-2 l3 -48 -65 0 -66 0 0 50 0 51 63 -3 62 -3 3 -47z"/>
<path d="M1057 484 c-9 -9 -9 -136 -1 -158 5 -13 24 -16 105 -16 114 0 112 -2
107 110 l-3 65 -101 3 c-55 1 -103 0 -107 -4z m163 -84 l0 -50 -60 0 -60 0 0
50 0 50 60 0 60 0 0 -50z"/>
<path d="M1330 400 l0 -91 103 3 102 3 0 85 0 85 -102 3 -103 3 0 -91z m168 3
l-3 -48 -62 -3 -63 -3 0 51 0 50 66 0 65 0 -3 -47z"/>
</g>
</svg>
