<?xml version="1.0" standalone="no"?>
<!DOCTYPE svg PUBLIC "-//W3C//DTD SVG 20010904//EN"
 "http://www.w3.org/TR/2001/REC-SVG-20010904/DTD/svg10.dtd">
<svg
    id="arrow"
    version="1.0"
    xmlns="http://www.w3.org/2000/svg"
    viewBox="0 0 512.000000 512.000000"
    preserveAspectRatio="xMidYMid meet">
<g
    stroke="null"
    fill="currentColor"
    transform="translate(0.000000,512.000000) scale(0.100000,-0.100000)">
    <path d="M2290 5114 c-292 -26 -555 -90 -799 -195 -718 -309 -1256 -953 -1426
        -1709 -46 -203 -59 -323 -59 -545 -1 -300 33 -512 125 -790 117 -350 303 -655
        564 -924 210 -216 419 -369 680 -497 248 -121 464 -189 730 -230 184 -29 562
        -26 744 5 732 125 1342 537 1719 1161 161 266 268 557 323 881 31 182 34 560
        5 744 -68 441 -247 847 -523 1190 -103 128 -300 319 -425 413 -342 256 -726
        415 -1153 478 -99 14 -418 26 -505 18z m388 -365 c734 -80 1372 -534 1687
        -1202 135 -288 195 -560 195 -890 0 -567 -213 -1079 -615 -1482 -403 -402
        -915 -615 -1482 -615 -194 0 -331 16 -509 59 -771 189 -1387 828 -1549 1608
        -50 238 -58 538 -20 763 56 341 196 663 408 945 78 103 289 314 392 392 321
        242 687 385 1085 426 80 8 318 6 408 -4z"
    />
    <path d="M2610 3345 l395 -395 -913 0 -912 0 2 -292 3 -293 910 -3 910 -2
        -390 -390 -390 -390 280 0 280 0 540 540 540 540 -540 540 -540 540 -285 0
        -285 0 395 -395z"
    />
</g>
</svg>
