<?xml version="1.0" standalone="no"?>
<!DOCTYPE svg PUBLIC "-//W3C//DTD SVG 20010904//EN"
 "http://www.w3.org/TR/2001/REC-SVG-20010904/DTD/svg10.dtd">
<svg version="1.0" xmlns="http://www.w3.org/2000/svg"
 width="512.000000pt" height="512.000000pt" viewBox="0 0 512.000000 512.000000"
 preserveAspectRatio="xMidYMid meet">

<g transform="translate(0.000000,512.000000) scale(0.100000,-0.100000)"
fill="#000000" stroke="none">
<path d="M1112 4073 c-49 -24 -75 -68 -80 -132 -4 -66 20 -111 78 -145 32 -19
54 -21 255 -24 l221 -3 42 -95 42 -94 -33 -44 c-17 -23 -106 -178 -197 -343
l-164 -300 -64 18 c-286 82 -612 14 -851 -178 -381 -304 -472 -857 -209 -1260
131 -200 330 -348 559 -413 107 -31 305 -38 424 -15 180 34 340 115 474 241
138 129 229 279 274 450 l24 89 354 5 c378 5 377 5 420 58 13 16 170 295 349
620 179 326 327 592 330 592 3 0 49 -81 103 -180 l99 -180 -75 -75 c-128 -128
-213 -275 -258 -451 -30 -114 -33 -331 -6 -436 74 -298 270 -538 540 -663 142
-66 212 -80 397 -80 142 0 176 3 244 23 173 50 317 135 437 259 297 305 362
736 168 1113 -203 394 -678 602 -1101 481 l-64 -18 -162 293 -162 294 0 120 0
120 185 0 c206 0 233 -6 255 -59 26 -64 -10 -112 -96 -130 -31 -6 -68 -20 -83
-31 -81 -57 -80 -201 2 -255 94 -61 273 -18 384 93 220 220 126 589 -175 682
-58 18 -94 20 -363 20 -335 0 -347 -2 -395 -66 -29 -37 -29 -38 -32 -206 l-3
-168 -595 2 -595 3 -35 78 c-19 43 -34 80 -34 82 0 3 55 5 123 5 152 1 191 9
234 53 58 58 63 146 11 212 -43 55 -42 55 -625 55 -475 0 -542 -2 -571 -17z
m1960 -825 c-11 -18 -127 -228 -257 -466 -221 -402 -239 -432 -251 -410 -19
36 -404 897 -404 903 0 3 210 5 466 5 l466 0 -20 -32z m-1011 -538 c122 -272
228 -510 235 -527 l14 -33 -202 0 -203 0 -16 68 c-40 166 -130 322 -256 449
l-74 74 42 77 c173 318 222 402 230 395 4 -4 108 -231 230 -503z m-983 -97
c17 -3 32 -9 32 -14 0 -4 -67 -131 -150 -280 -82 -150 -152 -286 -156 -301 -9
-44 4 -94 33 -128 50 -60 51 -60 413 -60 181 0 330 -2 330 -4 0 -2 -13 -35
-28 -72 -103 -252 -328 -404 -597 -404 -173 0 -314 59 -441 185 -136 134 -202
303 -191 485 25 391 368 661 755 593z m3246 -9 c264 -67 455 -303 473 -584 18
-299 -195 -586 -487 -654 -83 -20 -217 -20 -300 0 -175 41 -340 172 -419 334
-54 110 -75 209 -68 320 10 148 62 278 154 380 l45 50 150 -272 c83 -150 160
-284 172 -296 70 -78 184 -68 250 21 15 20 21 43 21 81 0 48 -11 71 -139 306
-76 139 -146 266 -155 281 -8 15 -13 30 -10 34 12 12 127 23 189 18 36 -2 92
-11 124 -19z m-2806 -311 c18 -34 39 -80 47 -102 l14 -41 -169 0 c-94 0 -170
3 -170 6 0 4 35 71 78 150 l77 144 45 -48 c25 -26 60 -76 78 -109z"/>
</g>
</svg>
