<?xml version="1.0" standalone="no"?>
<!DOCTYPE svg PUBLIC "-//W3C//DTD SVG 20010904//EN"
 "http://www.w3.org/TR/2001/REC-SVG-20010904/DTD/svg10.dtd">
<svg
    id="clock"
    version="1.0"
    xmlns="http://www.w3.org/2000/svg"
    viewBox="0 0 800.000000 800.000000"
    preserveAspectRatio="xMidYMid meet">
    <g
        stroke="none"
        fill="currentColor"
        transform="translate(0.000000,800.000000) scale(0.100000,-0.100000)">
        <path d="M3800 7243 c-210 -20 -268 -27 -364 -43 -1271 -223 -2300 -1191
            -2596 -2445 -65 -274 -84 -449 -84 -755 0 -280 12 -406 64 -660 151 -746 585
            -1439 1198 -1913 375 -291 860 -513 1322 -607 254 -52 380 -64 660 -64 306 0
            481 19 755 84 1184 280 2125 1221 2405 2405 64 271 84 452 84 755 0 303 -20
            484 -84 755 -346 1465 -1681 2510 -3184 2493 -78 0 -157 -3 -176 -5z m482
            -508 c536 -57 1030 -261 1448 -598 142 -114 356 -336 466 -482 459 -612 644
            -1377 513 -2125 -76 -437 -244 -824 -515 -1188 -116 -155 -382 -420 -539 -538
            -508 -380 -1099 -568 -1725 -551 -590 17 -1112 199 -1588 553 -154 115 -421
            382 -536 536 -385 518 -574 1112 -553 1743 18 532 169 1002 462 1440 470 703
            1236 1153 2075 1218 119 9 369 5 492 -8z"
        />
        <path d="M3911 5633 c-24 -9 -63 -35 -86 -58 -80 -79 -76 -24 -73 -1061 l3
            -919 22 -40 c12 -22 233 -250 505 -521 525 -522 502 -504 617 -504 162 0 276
            160 229 324 -10 35 -76 106 -445 476 l-433 436 0 835 c0 941 3 896 -75 974
            -69 70 -169 91 -264 58z"
        />
    </g>
</svg>
