<?xml version="1.0" standalone="no"?>
<!DOCTYPE svg PUBLIC "-//W3C//DTD SVG 20010904//EN"
 "http://www.w3.org/TR/2001/REC-SVG-20010904/DTD/svg10.dtd">
<svg
    id="cluster"
    version="1.0"
    xmlns="http://www.w3.org/2000/svg"
    viewBox="0 0 512.000000 512.000000"
    preserveAspectRatio="xMidYMid meet">
    <g
        stroke="none"
        fill="currentColor"
        transform="translate(0.000000,512.000000) scale(0.100000,-0.100000)">
        <path d="M4340 5104 c-111 -23 -224 -86 -311 -173 -233 -234 -252 -599 -43
            -856 l46 -56 -250 -437 c-150 -263 -255 -436 -263 -435 -8 0 -50 11 -94 24
            -114 32 -343 32 -460 1 -107 -29 -266 -109 -354 -177 -44 -35 -76 -53 -84 -49
            -6 5 -300 224 -652 487 -352 264 -641 480 -642 481 -1 1 8 28 19 61 28 83 34
            220 14 315 -62 293 -327 510 -626 510 -349 0 -640 -291 -640 -640 0 -362 310
            -657 670 -637 104 6 219 42 308 97 l63 40 653 -490 653 -490 -35 -86 c-54
            -135 -75 -257 -68 -389 3 -60 14 -142 24 -181 l19 -71 -684 -367 -684 -368
            -82 27 c-231 77 -474 19 -648 -154 -252 -252 -252 -650 0 -902 252 -252 650
            -252 902 0 195 195 243 479 124 728 -20 41 -35 76 -33 78 5 5 1196 645 1223
            657 22 10 30 4 107 -74 181 -183 393 -282 638 -295 159 -8 267 14 480 100 11
            4 58 -48 165 -183 83 -104 150 -193 149 -197 0 -4 -17 -42 -37 -83 -122 -247
            -73 -535 122 -731 252 -252 650 -252 902 0 252 252 252 650 0 902 -175 175
            -420 232 -652 152 l-86 -30 -147 184 -146 183 55 73 c70 90 147 246 177 357
            33 123 32 338 0 460 -47 170 -137 326 -260 448 l-64 63 250 437 c242 423 250
            437 278 435 16 -1 67 -5 114 -8 301 -24 592 198 655 500 95 456 -309 857 -765
            759z"
        />
    </g>
</svg>
