<?xml version="1.0" standalone="no"?>
<!DOCTYPE svg PUBLIC "-//W3C//DTD SVG 20010904//EN"
 "http://www.w3.org/TR/2001/REC-SVG-20010904/DTD/svg10.dtd">
<svg version="1.0" xmlns="http://www.w3.org/2000/svg"
 width="512.000000pt" height="512.000000pt" viewBox="0 0 512.000000 512.000000"
 preserveAspectRatio="xMidYMid meet">

<g transform="translate(0.000000,512.000000) scale(0.100000,-0.100000)"
fill="#000000" stroke="none">
<path d="M1283 4670 c-18 -4 -40 -14 -49 -21 -26 -22 -46 -78 -39 -110 4 -15
111 -167 240 -336 l233 -308 -582 -5 c-525 -5 -586 -7 -636 -24 -168 -55 -305
-169 -378 -313 -77 -155 -73 -81 -70 -1428 l3 -1200 26 -66 c92 -238 280 -381
537 -410 54 -6 836 -8 2057 -7 1841 3 1974 4 2030 21 234 68 419 261 454 474
9 49 11 401 9 1263 l-3 1195 -28 74 c-71 192 -204 321 -412 398 -46 17 -97 18
-672 21 -343 2 -623 5 -623 8 0 2 101 138 223 302 123 164 229 307 235 319 17
30 15 70 -4 102 -35 60 49 56 -1289 58 -676 0 -1245 -2 -1262 -7z m2197 -238
c0 -4 -91 -126 -203 -272 l-203 -265 -550 -2 -549 -2 -200 262 c-110 143 -201
267 -203 274 -3 11 175 13 952 13 526 0 956 -3 956 -8z m1160 -805 c99 -39
186 -130 221 -232 12 -33 14 -240 14 -1230 l0 -1190 -23 -57 c-33 -81 -106
-158 -184 -194 l-63 -29 -2042 -3 c-2034 -2 -2042 -2 -2096 18 -103 39 -184
118 -224 220 -17 42 -18 121 -21 1190 -2 767 1 1168 8 1213 24 156 136 277
282 306 24 5 952 8 2063 7 1912 -1 2022 -2 2065 -19z"/>
</g>
</svg>
