<?xml version="1.0" standalone="no"?>
<!DOCTYPE svg PUBLIC "-//W3C//DTD SVG 20010904//EN"
 "http://www.w3.org/TR/2001/REC-SVG-20010904/DTD/svg10.dtd">
<svg
    id="information"
    version="1.0"
    xmlns="http://www.w3.org/2000/svg"
    viewBox="0 0 5120.000000 5120.000000"
    preserveAspectRatio="xMidYMid meet">
    <g
        stroke="none"
        fill="currentColor"
        transform="translate(0.000000,5120.000000) scale(0.100000,-0.100000)">
        <path d="M24845 51189 c-4602 -139 -9022 -1498 -12915 -3972 -1489 -946 -2960
            -2112 -4174 -3307 -653 -643 -1082 -1100 -1591 -1695 -2336 -2728 -4066 -5886
            -5090 -9291 -618 -2055 -953 -4061 -1057 -6324 -16 -363 -16 -1637 0 -2000 85
            -1851 314 -3460 733 -5145 553 -2220 1383 -4308 2522 -6340 883 -1576 2000
            -3139 3232 -4520 599 -672 1325 -1402 1995 -2005 2830 -2547 6167 -4430 9776
            -5515 4766 -1433 9882 -1433 14648 0 3609 1085 6946 2968 9776 5515 670 603
            1396 1333 1995 2005 2782 3121 4754 6842 5754 10860 419 1687 646 3279 733
            5145 16 349 16 1651 0 2000 -50 1078 -132 1924 -278 2880 -744 4855 -2901
            9415 -6209 13125 -599 672 -1325 1402 -1995 2005 -4296 3868 -9698 6157
            -15420 6534 -768 51 -1682 68 -2435 45z m1565 -2839 c3025 -114 5878 -791
            8625 -2046 315 -144 987 -478 1295 -644 3958 -2139 7191 -5372 9330 -9330 166
            -308 500 -980 644 -1295 1193 -2610 1863 -5319 2026 -8180 41 -733 41 -1777 0
            -2510 -141 -2482 -665 -4852 -1580 -7140 -1404 -3514 -3683 -6645 -6615 -9090
            -1699 -1416 -3594 -2580 -5615 -3448 -1508 -648 -3097 -1133 -4700 -1436
            -1126 -213 -2234 -337 -3405 -381 -348 -13 -1282 -13 -1630 0 -3002 114 -5846
            785 -8575 2025 -288 130 -980 473 -1265 625 -3822 2045 -6988 5125 -9137 8890
            -510 893 -977 1861 -1358 2815 -914 2287 -1439 4659 -1580 7140 -41 733 -41
            1777 0 2510 211 3720 1305 7262 3225 10445 1668 2765 3919 5164 6580 7012
            1406 976 2947 1805 4530 2438 2408 962 4942 1500 7540 1599 311 12 1360 12
            1665 1z"
        />
        <path d="M25270 40709 c-1576 -155 -2854 -1342 -3115 -2893 -36 -216 -48 -361
            -47 -596 0 -372 49 -697 157 -1040 392 -1249 1471 -2189 2755 -2399 218 -36
            339 -45 580 -45 466 0 860 74 1285 241 328 129 674 333 941 556 1069 890 1509
            2295 1140 3637 -183 665 -587 1292 -1119 1735 -521 433 -1116 695 -1797 790
            -137 20 -635 28 -780 14z"
        />
        <path d="M25230 32254 c-624 -68 -1208 -308 -1730 -710 -147 -114 -460 -426
            -574 -574 -384 -496 -604 -1016 -703 -1660 -17 -109 -18 -518 -21 -7855 -2
            -5544 0 -7775 8 -7865 58 -670 313 -1306 736 -1835 113 -141 388 -416 529
            -529 614 -490 1342 -746 2125 -746 509 0 972 102 1434 314 210 97 494 275 691
            432 141 113 416 388 529 529 413 517 661 1122 731 1782 22 210 22 15468 0
            15678 -69 650 -303 1228 -711 1755 -114 148 -426 460 -574 574 -523 405 -1110
            644 -1744 711 -179 19 -551 18 -726 -1z"
        />
    </g>
</svg>
