<?xml version="1.0" standalone="no"?>
<!DOCTYPE svg PUBLIC "-//W3C//DTD SVG 20010904//EN"
 "http://www.w3.org/TR/2001/REC-SVG-20010904/DTD/svg10.dtd">
<svg version="1.0" xmlns="http://www.w3.org/2000/svg"
 width="512.000000pt" height="512.000000pt" viewBox="0 0 512.000000 512.000000"
 preserveAspectRatio="xMidYMid meet">

<g transform="translate(0.000000,512.000000) scale(0.100000,-0.100000)"
fill="#000000" stroke="none">
<path d="M2355 4795 c-461 -75 -839 -354 -1049 -773 -103 -206 -157 -491 -136
-725 11 -129 56 -306 108 -425 l40 -93 -32 -13 c-136 -60 -666 -329 -683 -347
-12 -13 -26 -36 -32 -51 -5 -14 -92 -450 -192 -967 -136 -709 -180 -950 -174
-978 4 -23 21 -51 45 -75 70 -70 48 -77 803 247 366 157 671 285 677 285 7 0
375 -128 819 -285 576 -203 819 -285 850 -285 34 0 188 62 744 301 386 165
713 310 725 322 33 30 52 70 52 108 0 35 -356 1887 -369 1923 -5 12 -25 37
-45 54 -31 27 -45 32 -86 32 -44 0 -85 -17 -327 -135 -152 -74 -278 -135 -279
-135 -2 0 10 29 26 65 42 93 88 242 105 342 20 114 21 322 1 445 -92 567 -531
1028 -1094 1148 -129 28 -372 35 -497 15z m340 -286 c423 -52 783 -347 918
-752 108 -321 58 -666 -140 -975 -28 -44 -881 -1211 -902 -1235 -6 -6 -819
1089 -908 1223 -87 132 -152 287 -183 440 -19 88 -21 127 -17 240 6 164 35
287 101 425 59 125 106 194 196 289 249 263 588 387 935 345z m1615 -1823 c0
-2 67 -351 150 -777 82 -426 146 -777 142 -780 -21 -18 -1116 -478 -1122 -472
-4 4 -39 327 -79 716 l-72 709 45 61 c111 156 71 129 516 347 385 189 420 205
420 196z m-2687 -363 l117 -161 -51 -498 c-28 -275 -52 -499 -52 -500 -27 -14
-1090 -464 -1091 -462 -2 2 63 343 143 758 l146 755 315 156 315 157 20 -22
c11 -12 73 -94 138 -183z m556 -756 c143 -194 272 -365 286 -380 49 -48 146
-49 196 -1 16 15 131 167 256 336 124 170 230 311 235 314 4 3 8 -1 8 -8 0 -7
27 -274 59 -593 33 -319 59 -581 58 -582 -2 -2 -1277 445 -1402 492 l-41 15
27 268 c43 415 51 492 55 492 1 0 120 -159 263 -353z"/>
<path d="M2430 4014 c-125 -27 -255 -108 -344 -214 -47 -57 -111 -188 -125
-258 -16 -77 -13 -215 5 -285 73 -281 313 -466 604 -467 169 0 309 58 430 179
198 198 242 466 117 721 -122 249 -409 384 -687 324z m250 -196 c118 -35 220
-123 273 -238 94 -199 4 -452 -197 -550 -170 -84 -351 -54 -487 80 -169 168
-168 430 3 601 105 105 269 148 408 107z"/>
</g>
</svg>
