<?xml version="1.0" standalone="no"?>
<!DOCTYPE svg PUBLIC "-//W3C//DTD SVG 20010904//EN"
 "http://www.w3.org/TR/2001/REC-SVG-20010904/DTD/svg10.dtd">
<svg
    id="merge"
    version="1.0"
    xmlns="http://www.w3.org/2000/svg"
    viewBox="0 0 512.000000 512.000000"
    preserveAspectRatio="xMidYMid meet">
    <g
        stroke="none"
        fill="currentColor"
        transform="translate(0.000000,512.000000) scale(0.100000,-0.100000)">
        <path d="M640 3200 l0 -1280 640 0 640 0 0 -640 0 -640 1280 0 1280 0 0 1280
            0 1280 -640 0 -640 0 0 640 0 640 -1280 0 -1280 0 0 -1280z m2240 433 l0 -527
            -57 -58 -58 -58 113 -112 112 -113 58 58 58 57 527 0 527 0 0 -960 0 -960
            -960 0 -960 0 0 527 0 527 57 58 58 58 -113 112 -112 113 -58 -58 -58 -57
            -527 0 -527 0 0 960 0 960 960 0 960 0 0 -527z"
        />
        <path d="M1437 3682 c-59 -59 -107 -112 -107 -117 0 -6 88 -98 195 -205 l195
            -195 -142 -142 -143 -143 403 0 402 0 0 402 0 403 -143 -143 -142 -142 -195
            195 c-107 107 -199 195 -205 195 -6 0 -59 -48 -118 -108z"
        />
        <path d="M2442 2677 c-83 -84 -152 -157 -152 -162 0 -13 212 -225 225 -225 13
            0 315 302 315 315 0 13 -212 225 -225 225 -6 0 -79 -69 -163 -153z"
        />
        <path d="M2880 1838 l0 -403 143 143 142 142 195 -195 c107 -107 199 -195 205
            -195 13 0 225 212 225 225 0 6 -88 98 -195 205 l-195 195 142 142 143 143
            -403 0 -402 0 0 -402z"
        />
    </g>
</svg>
