<?xml version="1.0" standalone="no"?>
<!DOCTYPE svg PUBLIC "-//W3C//DTD SVG 20010904//EN"
 "http://www.w3.org/TR/2001/REC-SVG-20010904/DTD/svg10.dtd">
<svg
    id="merge-all"
    version="1.0"
    xmlns="http://www.w3.org/2000/svg"
    viewBox="0 0 200.000000 200.000000"
    preserveAspectRatio="xMidYMid meet">
    <g
        stroke="none"
        fill="currentColor"
        transform="translate(0.000000,200.000000) scale(0.100000,-0.100000)">
        <path d="M170 1442 l0 -110 218 -4 c215 -3 218 -3 275 -31 43 -21 90 -62 185
            -158 70 -72 127 -134 127 -139 0 -5 -57 -67 -127 -138 -94 -97 -141 -137 -185
            -158 -58 -29 -59 -29 -275 -32 l-218 -4 0 -110 0 -110 228 4 c198 4 235 7 287
            25 123 44 180 86 359 271 117 120 156 142 249 142 l66 0 3 -79 3 -79 228 131
            c125 72 227 134 227 137 0 3 -102 65 -227 137 l-228 131 -3 -79 -3 -79 -65 0
            c-35 0 -81 7 -101 15 -20 9 -102 81 -192 168 -241 236 -271 249 -603 255
            l-228 4 0 -110z"
        />
    </g>
</svg>
