<?xml version="1.0" standalone="no"?>
<!DOCTYPE svg PUBLIC "-//W3C//DTD SVG 20010904//EN"
 "http://www.w3.org/TR/2001/REC-SVG-20010904/DTD/svg10.dtd">
<svg version="1.0" xmlns="http://www.w3.org/2000/svg"
 width="200.000000pt" height="200.000000pt" viewBox="0 0 200.000000 200.000000"
 preserveAspectRatio="xMidYMid meet">

<g transform="translate(0.000000,200.000000) scale(0.100000,-0.100000)"
fill="#000000" stroke="none">
<path d="M896 1629 c-136 -22 -252 -83 -352 -184 -203 -205 -241 -521 -92
-773 42 -72 148 -178 220 -220 254 -150 571 -111 778 98 91 91 120 140 100
165 -15 18 -32 17 -130 -10 -189 -52 -410 37 -522 209 -126 195 -100 454 62
612 49 49 61 79 38 102 -13 13 -30 14 -102 1z m-76 -145 c-69 -113 -97 -277
-70 -417 51 -268 324 -476 595 -453 l70 6 -45 -40 c-52 -46 -132 -90 -210
-116 -83 -28 -244 -26 -332 4 -169 58 -302 191 -360 360 -27 80 -32 236 -9
317 34 122 127 253 228 319 41 27 155 78 161 72 1 -2 -11 -25 -28 -52z"/>
</g>
</svg>
