<?xml version="1.0" standalone="no"?>
<!DOCTYPE svg PUBLIC "-//W3C//DTD SVG 20010904//EN"
 "http://www.w3.org/TR/2001/REC-SVG-20010904/DTD/svg10.dtd">
<svg
    id="occupancy"
    version="1.0"
    xmlns="http://www.w3.org/2000/svg"
    viewBox="0 0 626.000000 626.000000"
    preserveAspectRatio="xMidYMid meet">
    <g
        fill="currentColor"
        transform="translate(0.000000,626.000000) scale(0.100000,-0.100000)">
        <path d="M1420 5754 c-362 -70 -627 -307 -737 -659 -25 -83 -27 -103 -27 -250
            0 -147 2 -167 28 -250 95 -304 295 -514 591 -618 137 -48 334 -58 488 -25 72
            15 195 63 247 96 42 26 43 29 66 126 48 198 175 412 331 555 l76 70 -6 108
            c-15 278 -167 541 -406 702 -149 101 -288 143 -486 147 -77 1 -151 0 -165 -2z"
        />
        <path d="M4550 5754 c-301 -59 -539 -235 -673 -499 -48 -94 -85 -223 -93 -320
            l-6 -80 49 -30 c60 -37 192 -162 248 -235 104 -135 185 -316 215 -475 6 -33
            13 -70 15 -81 9 -43 235 -104 387 -104 117 0 244 24 343 65 260 106 445 307
            536 580 31 96 33 107 33 260 1 163 -4 194 -47 320 -76 219 -263 426 -473 521
            -130 59 -209 76 -364 79 -80 2 -156 1 -170 -1z"
        />
        <path d="M2970 4790 c-284 -67 -509 -252 -628 -515 -60 -134 -77 -214 -77
            -375 0 -120 4 -160 23 -228 93 -342 350 -591 688 -668 115 -26 312 -24 421 5
            351 92 613 368 679 717 19 103 14 301 -10 394 -69 271 -270 507 -525 620 -156
            68 -404 90 -571 50z"
        />
        <path d="M985 3849 c-80 -12 -246 -64 -320 -101 -301 -151 -525 -417 -614
            -731 -48 -168 -51 -210 -51 -771 l0 -525 43 -11 c23 -6 78 -22 122 -35 360
            -105 736 -179 1050 -205 72 -6 139 -12 150 -13 19 -2 20 6 26 223 7 235 24
            355 70 492 137 413 461 742 867 884 28 10 52 21 52 25 0 3 -21 28 -46 55 -149
            160 -257 400 -286 631 l-11 93 -496 -1 c-273 -1 -523 -5 -556 -10z"
        />
        <path d="M4310 3828 c0 -61 -31 -213 -62 -303 -46 -135 -129 -276 -228 -387
            -52 -58 -57 -68 -39 -68 18 0 139 -50 213 -87 404 -205 686 -597 750 -1046 10
            -67 16 -179 16 -299 l0 -191 103 7 c436 29 829 116 1110 245 l87 40 0 523 c0
            538 -3 581 -44 733 -89 333 -307 596 -631 758 -69 34 -235 85 -320 97 -38 5
            -269 10 -512 10 l-443 0 0 -32z"
        />
        <path d="M2680 2910 c-514 -46 -939 -429 -1046 -941 -15 -73 -18 -158 -21
            -639 l-4 -555 178 -52 c530 -155 988 -223 1493 -223 530 0 1037 93 1383 254
            l77 37 0 502 c0 293 -5 540 -11 592 -36 305 -193 585 -439 779 -148 118 -314
            193 -520 236 -65 14 -959 22 -1090 10z"
        />
    </g>
</svg>
