<?xml version="1.0" standalone="no"?>
<!DOCTYPE svg PUBLIC "-//W3C//DTD SVG 20010904//EN"
 "http://www.w3.org/TR/2001/REC-SVG-20010904/DTD/svg10.dtd">
<svg
    id="route"
    version="1.0"
    xmlns="http://www.w3.org/2000/svg"
    viewBox="0 0 820.000000 824.000000"
    preserveAspectRatio="xMidYMid meet">
    <g
        stroke="none"
        fill="currentColor"
        transform="translate(0.000000,824.000000) scale(0.100000,-0.100000)">
        <path d="M1405 7829 c-306 -27 -638 -186 -870 -415 -282 -280 -451 -697 -432
            -1064 15 -275 173 -641 497 -1151 165 -259 646 -892 865 -1139 87 -97 85 -96
            132 -47 107 111 456 545 635 792 490 672 740 1166 773 1526 17 183 -50 502
            -146 692 -134 265 -384 520 -635 649 -164 84 -385 143 -579 153 -55 3 -111 7
            -125 9 -14 1 -65 -1 -115 -5z m400 -534 c235 -66 457 -245 580 -468 83 -150
            127 -353 106 -487 -42 -267 -262 -675 -664 -1230 -157 -217 -256 -340 -272
            -340 -16 0 -125 134 -273 337 -390 534 -620 956 -662 1218 -44 271 111 616
            362 805 130 98 266 159 403 181 83 13 352 3 420 -16z"
        />
        <path d="M1419 6871 c-193 -62 -332 -221 -360 -411 -29 -202 95 -428 286 -521
            69 -34 71 -34 210 -34 140 0 141 0 210 34 212 104 329 359 270 586 -56 214
            -261 366 -490 364 -38 0 -95 -8 -126 -18z"
        />
        <path d="M6395 4641 c-252 -46 -497 -162 -697 -327 -244 -204 -431 -543 -483
            -879 -20 -128 -16 -336 9 -448 70 -306 406 -905 825 -1467 204 -273 576 -720
            599 -720 12 0 149 160 316 368 767 958 1136 1630 1136 2071 0 239 -109 580
            -252 788 -68 99 -248 282 -358 363 -140 104 -376 207 -565 246 -39 8 -149 17
            -250 19 -146 4 -199 1 -280 -14z m506 -519 c245 -66 471 -256 593 -498 62
            -125 88 -232 89 -369 2 -159 -20 -234 -133 -462 -102 -205 -196 -364 -367
            -618 -119 -177 -412 -577 -432 -589 -12 -8 -56 47 -240 299 -270 372 -441 643
            -566 896 -123 252 -158 390 -137 549 27 201 102 355 247 508 150 158 284 245
            455 291 65 18 97 21 245 17 130 -3 188 -9 246 -24z"
        />
        <path d="M6536 3709 c-116 -27 -280 -155 -338 -265 -62 -116 -59 -315 7 -450
            150 -307 566 -362 805 -107 35 37 75 93 91 127 27 58 29 68 29 192 0 191 -26
            263 -135 369 -118 116 -304 170 -459 134z"
        />
        <path d="M1472 3720 c-118 -25 -182 -120 -153 -228 25 -96 73 -126 226 -142
            202 -22 327 12 372 99 34 66 31 127 -9 187 -52 75 -85 87 -252 90 -78 2 -161
            -1 -184 -6z"
        />
        <path d="M2392 3680 c-23 -16 -54 -48 -68 -70 -26 -39 -27 -43 -16 -107 25
            -150 66 -165 547 -202 140 -11 186 -6 233 28 79 56 88 219 16 282 -51 45 -105
            57 -383 84 -237 23 -279 21 -329 -15z"
        />
        <path d="M3605 3452 c-109 -52 -143 -167 -79 -263 14 -20 67 -71 119 -114 96
            -79 110 -98 149 -207 33 -91 140 -151 226 -128 51 14 98 54 121 105 24 52 24
            84 -2 175 -33 120 -71 180 -180 284 -148 143 -264 191 -354 148z"
        />
        <path d="M3440 2641 c-8 -5 -111 -37 -228 -70 -306 -88 -357 -116 -371 -198
            -9 -49 4 -121 27 -153 10 -14 43 -38 73 -53 66 -35 86 -33 304 23 301 78 373
            112 411 193 29 63 30 106 4 156 -25 50 -60 77 -123 96 -58 17 -76 18 -97 6z"
        />
        <path d="M2110 2315 c-262 -67 -385 -111 -420 -152 -56 -63 -58 -144 -7 -222
            29 -44 96 -81 146 -81 51 0 482 115 572 153 55 23 84 77 84 158 0 56 -4 71
            -27 101 -35 46 -88 79 -136 84 -23 3 -102 -13 -212 -41z"
        />
        <path d="M1113 1881 c-82 -52 -166 -163 -204 -272 -20 -54 -23 -85 -23 -199 0
            -117 2 -142 22 -192 34 -85 106 -138 190 -138 31 0 92 27 120 53 47 44 52 66
            45 199 -7 137 -5 141 72 273 43 74 47 136 13 197 -44 78 -170 120 -235 79z"
        />
        <path d="M1622 1039 c-19 -6 -53 -29 -76 -53 -81 -81 -82 -183 -2 -262 35 -35
            58 -46 171 -82 158 -51 391 -112 426 -112 36 0 129 50 153 83 16 22 21 44 21
            105 0 128 -32 152 -310 232 -99 28 -215 62 -258 76 -43 13 -81 24 -85 23 -4 0
            -22 -5 -40 -10z"
        />
        <path d="M2784 752 c-99 -47 -139 -186 -77 -270 51 -68 89 -80 381 -117 289
            -37 338 -33 395 34 38 46 52 104 38 164 -27 118 -59 132 -411 178 -238 32
            -278 33 -326 11z"
        />
        <path d="M4016 640 c-64 -20 -126 -108 -126 -180 0 -68 51 -146 110 -168 42
            -16 195 -32 413 -42 l209 -10 45 37 c49 41 83 97 83 140 0 46 -19 100 -46 132
            -42 51 -102 64 -374 81 -85 6 -184 12 -220 15 -36 2 -78 0 -94 -5z"
        />
        <path d="M5268 570 c-105 -18 -153 -75 -152 -183 1 -151 56 -170 511 -181
            l232 -6 38 41 c49 52 60 74 69 127 14 94 -51 179 -157 201 -57 12 -469 13
            -541 1z"
        />
        <path d="M6520 563 c-57 -9 -71 -15 -105 -45 -47 -41 -65 -77 -65 -132 0 -58
            14 -93 53 -134 43 -44 80 -52 255 -53 195 0 229 9 280 75 56 73 48 159 -22
            234 -35 36 -51 46 -92 53 -49 8 -258 10 -304 2z"
        />
    </g>
</svg>
