<?xml version="1.0" standalone="no"?>
<!DOCTYPE svg PUBLIC "-//W3C//DTD SVG 20010904//EN"
 "http://www.w3.org/TR/2001/REC-SVG-20010904/DTD/svg10.dtd">
<svg
    id="schedule"
    version="1.0"
    xmlns="http://www.w3.org/2000/svg"
    viewBox="0 0 980.000000 980.000000"
    preserveAspectRatio="xMidYMid meet">
    <g
        stroke="none"
        fill="currentColor"
        transform="translate(0.000000,980.000000) scale(0.100000,-0.100000)">
        <path d="M1433 9782 c-90 -32 -155 -95 -190 -183 -17 -41 -18 -97 -18 -719 l0
            -675 33 -67 c37 -75 73 -111 147 -144 74 -33 124 -38 195 -20 77 20 134 57
            177 117 64 89 64 95 61 821 -3 643 -3 654 -24 699 -69 148 -236 223 -381 171z"
        />
        <path d="M6333 9782 c-90 -32 -155 -95 -190 -183 -17 -41 -18 -97 -18 -719 l0
            -675 33 -67 c56 -114 148 -172 272 -173 62 0 85 5 132 28 65 32 121 89 152
            156 21 46 21 52 21 731 0 679 0 685 -21 731 -69 148 -236 223 -381 171z"
        />
        <path d="M500 8554 c-190 -51 -342 -178 -431 -359 -75 -153 -70 78 -67 -3025
            l3 -2785 27 -80 c77 -226 250 -388 476 -446 73 -18 129 -19 1929 -19 l1853 0
            0 305 0 305 -1818 0 c-1554 0 -1821 2 -1838 14 -19 14 -19 47 -19 2143 l0
            2128 3368 3 3367 2 0 -615 0 -615 305 0 305 0 0 1243 c0 1386 4 1302 -72 1455
            -74 150 -217 276 -380 334 -55 19 -88 23 -265 26 l-203 4 0 -199 c0 -144 -4
            -215 -15 -256 -54 -208 -233 -387 -442 -441 -77 -20 -221 -20 -298 -1 -219 55
            -398 237 -449 455 -11 46 -16 120 -16 253 l0 187 -1840 0 -1840 0 0 -192 c0
            -137 -5 -212 -15 -257 -49 -206 -240 -397 -446 -446 -82 -19 -218 -19 -294 0
            -214 54 -391 229 -445 440 -17 65 -20 111 -20 267 l0 188 -182 -1 c-127 0
            -200 -5 -238 -15z"
        />
        <path d="M1220 5510 l0 -610 615 0 615 0 0 610 0 610 -615 0 -615 0 0 -610z"/>
        <path d="M3060 5510 l0 -610 615 0 615 0 0 610 0 610 -615 0 -615 0 0 -610z"/>
        <path d="M4900 5510 l0 -610 615 0 615 0 0 610 0 610 -615 0 -615 0 0 -610z"/>
        <path d="M7110 4889 c-413 -46 -784 -180 -1120 -404 -585 -391 -957 -983
            -1067 -1695 -25 -160 -25 -520 0 -680 60 -391 195 -736 409 -1047 573 -833
            1596 -1228 2583 -996 499 117 974 408 1302 798 715 850 777 2062 151 2972
            -305 443 -749 775 -1263 944 -94 31 -289 77 -405 94 -126 19 -470 28 -590 14z
            m405 -609 c564 -54 1062 -354 1375 -830 351 -535 394 -1231 110 -1805 -378
            -766 -1214 -1171 -2040 -988 -359 79 -639 233 -905 498 -282 281 -445 594
            -517 995 -29 162 -29 438 0 600 67 372 221 683 468 948 393 422 946 635 1509
            582z"
        />
        <path d="M6933 3654 c-57 -21 -129 -86 -161 -148 l-27 -51 0 -700 0 -700 23
            -42 c33 -63 74 -106 134 -139 l53 -29 700 0 700 0 51 27 c66 35 128 106 150
            170 23 70 16 178 -16 241 -29 58 -86 111 -149 141 -45 20 -60 21 -543 24
            l-497 3 -3 497 c-3 483 -4 498 -24 543 -30 63 -83 120 -141 149 -60 31 -185
            38 -250 14z"
        />
        <path d="M1225 4278 c-3 -7 -4 -283 -3 -613 l3 -600 613 -3 612 -2 0 615 0
            615 -610 0 c-479 0 -612 -3 -615 -12z"
        />
        <path d="M3067 4283 c-4 -3 -7 -280 -7 -615 l0 -608 615 0 615 0 0 615 0 615
            -608 0 c-335 0 -612 -3 -615 -7z"
        />
    </g>
</svg>
