<?xml version="1.0" standalone="no"?>
<!DOCTYPE svg PUBLIC "-//W3C//DTD SVG 20010904//EN"
 "http://www.w3.org/TR/2001/REC-SVG-20010904/DTD/svg10.dtd">
<svg
    id="select-all"
    version="1.0"
    xmlns="http://www.w3.org/2000/svg"
    viewBox="0 0 200.000000 200.000000"
    preserveAspectRatio="xMidYMid meet">
    <g
        stroke="none"
        fill="currentColor"
        transform="translate(0.000000,200.000000) scale(0.100000,-0.100000)">
        <path d="M645 1561 c-34 -14 -44 -34 -47 -96 l-3 -60 -59 -5 c-65 -6 -91 -27
            -101 -83 -3 -18 -5 -211 -3 -429 l3 -398 28 -27 27 -28 418 -3 c321 -1 423 1
            442 11 30 15 60 71 60 113 0 31 1 32 57 36 46 4 61 10 80 32 l23 27 0 429 0
            429 -24 28 -24 28 -429 2 c-235 1 -437 -2 -448 -6z m855 -482 l0 -420 -47 3
            -48 3 -5 345 c-3 190 -9 351 -14 359 -24 37 -67 41 -401 41 l-325 0 0 45 0 45
            420 0 420 0 0 -421z m-162 -148 c2 -292 -1 -407 -9 -417 -10 -12 -83 -14 -418
            -12 l-406 3 -3 405 c-1 223 0 411 3 418 3 10 92 12 417 10 l413 -3 3 -404z"
        />
        <path d="M979 1029 c-68 -78 -136 -155 -150 -173 l-26 -31 -42 38 c-46 42 -72
            46 -101 17 -36 -36 -26 -66 47 -141 65 -68 97 -83 129 -61 6 4 91 97 188 207
            185 209 198 232 158 268 -10 10 -32 17 -49 17 -25 0 -46 -19 -154 -141z"
        />
    </g>
</svg>
