<?xml version="1.0" standalone="no"?>
<!DOCTYPE svg PUBLIC "-//W3C//DTD SVG 20010904//EN"
 "http://www.w3.org/TR/2001/REC-SVG-20010904/DTD/svg10.dtd">
<svg
    id="show"
    version="1.0"
    xmlns="http://www.w3.org/2000/svg"
    viewBox="0 0 512.000000 512.000000"
    preserveAspectRatio="xMidYMid meet">
    <g
        stroke="none"
        fill="currentColor"
        transform="translate(0.000000,512.000000) scale(0.100000,-0.100000)">
        <path d="M415 3756 c-87 -39 -126 -136 -90 -224 19 -46 2101 -2133 2157 -2163
            21 -10 56 -19 78 -19 22 0 57 9 78 19 56 30 2138 2117 2157 2163 28 70 13 139
            -41 190 -50 46 -119 61 -180 38 -15 -6 -472 -453 -1017 -993 -544 -540 -994
            -983 -1001 -985 -6 -1 -452 439 -991 979 -573 574 -993 987 -1012 995 -40 17
            -99 17 -138 0z"
        />
    </g>
</svg>
