<?xml version="1.0" standalone="no"?>
<!DOCTYPE svg PUBLIC "-//W3C//DTD SVG 20010904//EN"
 "http://www.w3.org/TR/2001/REC-SVG-20010904/DTD/svg10.dtd">
<svg
    id="stop"
    version="1.0"
    xmlns="http://www.w3.org/2000/svg"
    viewBox="0 0 560.000000 446.000000"
    preserveAspectRatio="xMidYMid meet">

<g transform="translate(0.000000,446.000000) scale(0.100000,-0.100000)"
fill="#000000" stroke="none">
    <path d="M361 4289 c-173 -29 -320 -177 -353 -357 -12 -63 -8 -95 16 -127 13
        -19 29 -20 213 -25 l198 -5 3 -87 3 -87 -28 -6 c-75 -16 -122 -59 -142 -131
        -8 -27 -11 -510 -11 -1611 l0 -1573 -56 0 c-48 0 -59 -4 -85 -29 -37 -38 -39
        -82 -4 -116 l24 -25 383 0 c285 1 387 4 399 13 46 35 47 101 2 137 -19 15 -41
        20 -85 20 l-59 0 3 88 3 87 872 3 871 2 4 -149 c3 -142 4 -151 27 -175 30 -32
        78 -34 114 -5 26 20 27 22 29 172 l3 152 788 3 787 2 0 -140 c0 -181 13 -210
        91 -210 18 0 39 10 54 25 24 23 25 28 25 175 l0 150 178 -2 177 -3 0 -85 0
        -85 -63 -5 c-54 -4 -67 -9 -88 -33 -13 -16 -24 -37 -24 -48 0 -28 26 -75 45
        -83 22 -8 758 -8 780 0 19 8 45 55 45 83 0 11 -11 32 -24 48 -21 24 -34 29
        -88 33 l-63 5 -5 1600 c-4 1191 -8 1605 -17 1620 -22 38 -68 73 -111 85 l-43
        11 3 87 3 87 198 5 c238 6 230 2 225 121 -8 189 -165 357 -364 389 -76 13
        -4778 11 -4853 -1z m4891 -181 c52 -25 106 -74 129 -120 l19 -38 -2605 0
        c-1433 0 -2605 2 -2605 5 0 18 34 66 68 97 52 47 74 58 131 68 25 4 1122 7
        2436 6 2253 -1 2392 -2 2427 -18z m-274 -420 c3 -94 7 -87 -59 -102 -14 -3
        -41 -21 -60 -41 l-34 -35 -2029 0 -2029 0 -38 34 c-21 19 -56 40 -78 46 l-41
        11 0 89 0 90 2183 -2 2182 -3 3 -87z m-4368 -1833 l0 -1576 -87 3 -88 3 -3
        1560 c-1 858 0 1566 3 1573 3 8 31 12 90 12 l85 0 0 -1575z m4540 0 l0 -1575
        -85 0 -85 0 0 1575 0 1575 85 0 85 0 0 -1575z m-2440 695 l0 -790 -962 2 -963
        3 -3 775 c-1 426 0 781 3 788 3 9 206 12 965 12 l960 0 0 -790z m2095 0 l0
        -785 -962 -3 -963 -2 0 790 0 790 963 -2 962 -3 0 -785z m0 -1440 l0 -475
        -177 -3 -178 -2 0 90 0 90 63 0 c53 0 67 4 84 22 29 32 34 53 21 88 -22 63 38
        60 -1133 60 l-1067 0 -29 -29 c-37 -38 -39 -82 -4 -116 20 -21 34 -25 85 -25
        l60 0 0 -90 0 -90 -875 0 -875 0 0 480 0 480 2013 -2 2012 -3 0 -475z m-525
        -390 l0 -90 -787 2 -788 3 -3 74 c-2 41 -1 80 2 88 4 11 142 13 791 13 l785 0
        0 -90z"
    />
    <path d="M993 3136 l-28 -24 0 -561 0 -560 23 -23 23 -23 735 0 736 0 24 28
        24 28 0 545 c0 559 -1 572 -39 601 -12 9 -187 12 -743 13 l-727 0 -28 -24z
        m1367 -586 l0 -440 -615 0 -615 0 0 440 0 440 615 0 615 0 0 -440z"
    />
    <path d="M1339 2781 c-17 -18 -29 -40 -29 -56 0 -16 12 -38 29 -56 29 -29 31
        -29 145 -29 106 0 117 2 142 24 21 18 28 32 28 61 0 29 -7 43 -28 61 -25 22
        -36 24 -142 24 -114 0 -116 0 -145 -29z"
    />
    <path d="M1336 2429 c-34 -40 -33 -74 3 -110 l29 -29 200 0 200 0 31 26 c40
        33 43 83 6 119 -24 25 -24 25 -234 25 l-209 0 -26 -31z"
    />
    <path d="M2049 2447 c-46 -35 -50 -88 -10 -128 27 -27 35 -29 101 -29 66 0 74
        2 101 29 31 31 36 59 17 94 -20 38 -40 46 -118 46 -44 0 -82 -5 -91 -12z"
    />
    </g>
</svg>
