<?xml version="1.0" standalone="no"?>
<!DOCTYPE svg PUBLIC "-//W3C//DTD SVG 20010904//EN"
 "http://www.w3.org/TR/2001/REC-SVG-20010904/DTD/svg10.dtd">
<svg
    id="stop-sign"
    version="1.0"
    xmlns="http://www.w3.org/2000/svg"
    viewBox="0 0 200.000000 200.000000"
    preserveAspectRatio="xMidYMid meet">
    <g
        stroke="none"
        fill="currentColor"
        transform="translate(0.000000,200.000000) scale(0.100000,-0.100000)">
        <path d="M895 1817 c-108 -36 -195 -108 -239 -200 -108 -219 2 -471 237 -543
            l57 -18 0 -407 0 -408 -37 -3 c-38 -3 -38 -3 -41 -51 l-3 -47 131 0 131 0 -3
            48 c-3 47 -3 47 -40 50 l-38 3 0 408 0 407 58 18 c282 86 371 435 164 643 -69
            69 -156 106 -257 110 -48 2 -96 -2 -120 -10z m241 -100 c146 -74 210 -252 142
            -397 -138 -298 -583 -203 -582 125 0 137 86 251 224 296 49 16 162 4 216 -24z"
        />
        <path d="M860 1633 c-25 -9 -40 -35 -40 -70 0 -18 -4 -33 -10 -33 -5 0 -10
            -18 -10 -40 0 -22 5 -40 10 -40 6 0 10 -37 10 -90 l0 -90 39 0 c30 0 40 4 44
            20 5 18 14 20 97 20 83 0 92 -2 97 -20 4 -16 14 -20 44 -20 l39 0 0 90 c0 53
            4 90 10 90 6 0 10 18 10 40 0 22 -4 40 -10 40 -5 0 -10 15 -10 33 0 66 -12 72
            -167 74 -76 1 -145 0 -153 -4z m288 -40 c3 -10 -31 -13 -147 -13 -139 0 -164
            4 -144 24 4 3 70 5 147 4 100 -2 141 -6 144 -15z m-160 -100 l3 -63 -71 0 -70
            0 0 65 0 66 68 -3 67 -3 3 -62z m162 2 l0 -65 -70 0 -70 0 0 58 c0 32 3 62 7
            65 3 4 35 7 70 7 l63 0 0 -65z m0 -125 l0 -40 -150 0 -150 0 0 40 0 40 150 0
            150 0 0 -40z"
        />
        <path d="M862 1368 c3 -7 21 -14 41 -16 28 -2 37 1 37 12 0 12 -11 16 -41 16
            -28 0 -39 -4 -37 -12z"
        />
        <path d="M1060 1365 c0 -10 11 -15 35 -15 24 0 35 5 35 15 0 10 -11 15 -35 15
            -24 0 -35 -5 -35 -15z"
        />
    </g>
</svg>
