<?xml version="1.0" standalone="no"?>
<!DOCTYPE svg PUBLIC "-//W3C//DTD SVG 20010904//EN"
 "http://www.w3.org/TR/2001/REC-SVG-20010904/DTD/svg10.dtd">
<svg version="1.0" xmlns="http://www.w3.org/2000/svg"
 width="512.000000pt" height="512.000000pt" viewBox="0 0 512.000000 512.000000"
 preserveAspectRatio="xMidYMid meet">

<g transform="translate(0.000000,512.000000) scale(0.100000,-0.100000)"
fill="#000000" stroke="none">
<path d="M2090 4679 c-772 -55 -1276 -328 -1520 -824 -33 -66 -71 -160 -85
-210 -56 -195 -55 -157 -55 -1747 l0 -1468 2130 0 2130 0 -3 1513 -3 1512 -26
105 c-99 399 -324 687 -688 883 -238 128 -564 209 -960 237 -167 11 -751 11
-920 -1z m825 -849 c285 -20 460 -57 610 -129 146 -70 229 -156 283 -297 l27
-69 3 -825 c3 -912 4 -903 -60 -1032 -46 -92 -155 -198 -250 -243 -40 -19
-100 -40 -133 -46 -33 -6 -71 -13 -84 -16 -22 -4 -14 -15 92 -121 112 -113
117 -119 117 -160 l0 -42 -158 0 -157 0 -160 160 -160 160 -305 0 -305 0 -160
-160 -160 -160 -177 0 -178 0 0 42 c0 41 5 47 117 160 106 106 114 117 92 121
-13 3 -51 10 -84 16 -102 19 -198 72 -279 154 -83 84 -119 146 -146 253 -19
74 -20 113 -20 869 0 521 4 812 11 851 23 127 107 251 223 330 147 100 418
168 746 187 132 8 527 6 655 -3z"/>
<path d="M1500 2665 l0 -535 1065 0 1065 0 0 535 0 535 -1065 0 -1065 0 0
-535z"/>
<path d="M1742 1909 c-19 -6 -53 -30 -77 -53 -70 -70 -83 -155 -39 -245 67
-134 244 -158 342 -45 146 165 -11 404 -226 343z"/>
<path d="M3211 1894 c-132 -66 -157 -229 -51 -334 105 -106 268 -81 334 51 43
88 30 176 -39 244 -68 69 -156 82 -244 39z"/>
</g>
</svg>
