<?xml version="1.0" standalone="no"?>
<!DOCTYPE svg PUBLIC "-//W3C//DTD SVG 20010904//EN"
 "http://www.w3.org/TR/2001/REC-SVG-20010904/DTD/svg10.dtd">
<svg
    id="taxi"
    version="1.0"
    xmlns="http://www.w3.org/2000/svg"
    viewBox="0 0 280.000000 280.000000"
    preserveAspectRatio="xMidYMid meet">
    <g
        stroke="none"
        fillColor="currentColor"
        transform="translate(30.000000,240.000000) scale(0.100000,-0.100000)">
        <path d="M945 2148 c-31 -18 -35 -28 -35 -109 l0 -77 -167 -4 c-149 -3 -174
            -6 -221 -27 -93 -42 -97 -49 -245 -430 -67 -172 -74 -185 -103 -195 -46 -16
            -98 -55 -123 -92 -48 -69 -50 -90 -51 -431 l0 -323 90 0 90 0 0 -107 c0 -60 5
            -124 10 -145 29 -105 174 -148 262 -78 47 36 58 77 58 209 l0 121 614 0 614 0
            4 -133 c3 -119 5 -135 26 -165 71 -99 228 -86 282 24 16 33 20 61 20 157 l0
            117 90 0 90 0 0 323 c-1 345 -3 362 -54 435 -26 39 -68 69 -121 88 -28 10 -37
            28 -127 260 -54 136 -110 267 -125 289 -19 27 -48 50 -88 70 -58 29 -65 30
            -222 34 l-163 3 0 73 c0 57 -4 78 -19 96 -19 23 -24 24 -193 27 -118 1 -179
            -2 -193 -10z m723 -384 c30 -21 44 -51 122 -259 l68 -180 -726 -3 c-399 -1
            -727 0 -730 3 -2 2 29 93 69 202 50 134 82 207 101 226 l26 27 524 0 c458 0
            526 -2 546 -16z m-1230 -641 c91 -68 96 -203 9 -265 -46 -33 -123 -36 -167 -6
            -90 61 -107 171 -37 247 49 53 141 64 195 24z m1540 0 c51 -38 67 -70 67 -133
            0 -44 -5 -66 -21 -87 -74 -99 -192 -96 -261 6 -51 75 -15 187 72 227 39 18
            110 12 143 -13z"
        />
    </g>
</svg>
