<?xml version="1.0" standalone="no"?>
<!DOCTYPE svg PUBLIC "-//W3C//DTD SVG 20010904//EN"
 "http://www.w3.org/TR/2001/REC-SVG-20010904/DTD/svg10.dtd">
<svg
    id="traffic"
    version="1.0"
    xmlns="http://www.w3.org/2000/svg"
    viewBox="0 0 512.000000 512.000000"
    preserveAspectRatio="xMidYMid meet">
    <g
        stroke="none"
        fill="currentColor"
        transform="translate(0.000000,512.000000) scale(0.100000,-0.100000)">
        <path d="M2106 5024 c-68 -21 -149 -104 -169 -170 l-14 -49 -142 -5 c-180 -6
            -181 -7 -181 -146 l0 -94 -175 0 c-173 0 -176 0 -200 -25 -14 -13 -25 -32 -25
            -42 0 -10 37 -241 82 -513 73 -439 85 -498 105 -517 20 -21 32 -23 118 -23
            l95 0 0 -120 0 -120 -175 0 c-173 0 -176 0 -200 -25 -14 -13 -25 -32 -25 -42
            0 -10 37 -241 82 -513 73 -439 85 -498 105 -517 20 -21 32 -23 118 -23 l95 0
            0 -80 0 -80 -175 0 c-173 0 -176 0 -200 -25 -14 -13 -25 -32 -25 -42 0 -10 37
            -241 82 -513 73 -439 85 -498 105 -517 20 -21 32 -23 118 -23 l95 0 0 -55 c0
            -46 4 -60 25 -80 l24 -25 256 0 255 0 0 -255 0 -256 25 -24 24 -25 351 0 351
            0 24 25 25 24 0 256 0 255 255 0 256 0 24 25 c21 20 25 34 25 80 l0 55 95 0
            c86 0 98 2 118 23 20 19 32 78 105 517 45 272 82 503 82 513 0 10 -11 29 -25
            42 -24 25 -27 25 -200 25 l-175 0 0 80 0 80 95 0 c86 0 98 2 118 23 20 19 32
            78 105 517 45 272 82 503 82 513 0 10 -11 29 -25 42 -24 25 -27 25 -200 25
            l-175 0 0 120 0 120 95 0 c86 0 98 2 118 23 20 19 32 78 105 517 45 272 82
            503 82 513 0 10 -11 29 -25 42 -24 25 -27 25 -200 25 l-175 0 0 94 c0 139 -1
            140 -181 146 l-142 5 -13 45 c-17 60 -74 124 -138 158 l-51 27 -420 2 c-352 2
            -428 0 -469 -13z m893 -178 c17 -17 31 -33 31 -38 0 -4 -211 -8 -470 -8 -258
            0 -470 4 -470 8 0 11 51 58 70 65 8 3 194 5 412 4 l397 -2 30 -29z m361 -2126
            l0 -1920 -800 0 -800 0 0 1920 0 1920 800 0 800 0 0 -1920z m-1760 1280 l0
            -400 -45 0 c-38 0 -45 3 -50 23 -9 40 -125 746 -125 761 0 14 17 16 110 16
            l110 0 0 -400z m2140 384 c0 -15 -116 -721 -125 -761 -5 -20 -12 -23 -50 -23
            l-45 0 0 400 0 400 110 0 c93 0 110 -2 110 -16z m-2140 -1744 l0 -400 -45 0
            c-38 0 -45 3 -50 23 -9 40 -125 746 -125 761 0 14 17 16 110 16 l110 0 0 -400z
            m2140 384 c0 -15 -116 -721 -125 -761 -5 -20 -12 -23 -50 -23 l-45 0 0 400 0
            400 110 0 c93 0 110 -2 110 -16z m-2140 -1664 l0 -400 -45 0 c-38 0 -45 3 -50
            23 -9 40 -125 746 -125 761 0 14 17 16 110 16 l110 0 0 -400z m2140 384 c0
            -15 -116 -721 -125 -761 -5 -20 -12 -23 -50 -23 l-45 0 0 400 0 400 110 0 c93
            0 110 -2 110 -16z m-940 -1304 l0 -200 -240 0 -240 0 0 200 0 200 240 0 240 0
            0 -200z"
        />
        <path d="M2445 4549 c-90 -18 -208 -83 -277 -152 -112 -112 -163 -235 -163
            -397 0 -160 51 -285 161 -394 109 -110 234 -161 394 -161 160 0 285 51 394
            161 110 109 161 234 161 394 0 115 -14 170 -68 272 -35 67 -130 167 -194 205
            -117 68 -282 97 -408 72z m279 -187 c91 -42 149 -100 194 -190 35 -72 37 -81
            37 -172 0 -91 -2 -100 -37 -172 -45 -91 -103 -147 -196 -191 -61 -29 -76 -32
            -162 -32 -86 0 -101 3 -162 32 -93 44 -151 100 -196 191 -35 72 -37 81 -37
            171 0 87 3 102 32 163 40 85 97 147 172 186 78 42 122 52 213 48 61 -3 92 -11
            142 -34z"
        />
        <path d="M2445 3269 c-90 -18 -208 -83 -277 -152 -112 -112 -163 -235 -163
            -397 0 -160 51 -285 161 -394 109 -110 234 -161 394 -161 160 0 285 51 394
            161 110 109 161 234 161 394 0 115 -14 170 -68 272 -35 67 -130 167 -194 205
            -117 68 -282 97 -408 72z m279 -187 c91 -42 149 -100 194 -190 35 -72 37 -81
            37 -172 0 -91 -2 -100 -37 -172 -45 -91 -103 -147 -196 -191 -61 -29 -76 -32
            -162 -32 -86 0 -101 3 -162 32 -93 44 -151 100 -196 191 -35 72 -37 81 -37
            171 0 87 3 102 32 163 40 85 97 147 172 186 78 42 122 52 213 48 61 -3 92 -11
            142 -34z"
        />
        <path d="M2445 1989 c-90 -18 -208 -83 -277 -152 -112 -112 -163 -235 -163
            -397 0 -160 51 -285 161 -394 109 -110 234 -161 394 -161 160 0 285 51 394
            161 110 109 161 234 161 394 0 115 -14 170 -68 272 -35 67 -130 167 -194 205
            -117 68 -282 97 -408 72z m279 -187 c91 -42 149 -100 194 -190 35 -72 37 -81
            37 -172 0 -91 -2 -100 -37 -172 -45 -91 -103 -147 -196 -191 -61 -29 -76 -32
            -162 -32 -86 0 -101 3 -162 32 -93 44 -151 100 -196 191 -35 72 -37 81 -37
            171 0 87 3 102 32 163 40 85 97 147 172 186 78 42 122 52 213 48 61 -3 92 -11
            142 -34z"
        />
    </g>
</svg>
