<?xml version="1.0" standalone="no"?>
<!DOCTYPE svg PUBLIC "-//W3C//DTD SVG 20010904//EN"
 "http://www.w3.org/TR/2001/REC-SVG-20010904/DTD/svg10.dtd">
<svg version="1.0" xmlns="http://www.w3.org/2000/svg"
 width="256.000000pt" height="256.000000pt" viewBox="0 0 256.000000 256.000000"
 preserveAspectRatio="xMidYMid meet">

<g transform="translate(0.000000,256.000000) scale(0.100000,-0.100000)"
fill="#000000" stroke="none">
<path d="M1154 2392 c-48 -7 -72 -71 -46 -119 28 -52 120 -43 140 14 20 59
-30 116 -94 105z"/>
<path d="M1354 2390 c-28 -11 -54 -48 -54 -76 0 -12 9 -33 21 -48 43 -55 139
-21 139 50 0 29 -31 74 -50 74 -4 0 -14 2 -22 4 -7 3 -23 1 -34 -4z"/>
<path d="M839 2195 c-61 -20 -136 -87 -165 -150 l-24 -50 0 -556 c0 -622 -1
-611 71 -693 22 -24 61 -55 88 -67 l49 -22 -159 -238 c-87 -131 -159 -241
-159 -244 0 -3 42 -5 93 -5 l93 0 115 167 115 168 321 3 321 2 114 -167 115
-168 91 -3 c60 -2 92 1 92 8 0 6 -67 110 -148 233 -82 122 -151 227 -155 233
-4 7 14 22 48 39 65 31 108 80 135 153 19 50 20 79 20 591 0 599 0 603 -66
679 -20 24 -59 55 -88 70 l-51 27 -410 2 c-333 2 -419 -1 -456 -12z m609 -57
c7 -7 12 -39 12 -73 0 -34 -5 -66 -12 -73 -8 -8 -61 -12 -175 -12 -185 0 -183
-1 -183 86 0 81 8 84 190 84 108 0 160 -4 168 -12z m249 -234 c54 -40 64 -75
61 -221 -3 -115 -6 -135 -24 -160 -45 -62 -52 -63 -459 -63 -340 0 -373 2
-405 18 -61 32 -71 66 -68 229 l3 142 30 31 c16 17 43 35 60 40 16 5 197 8
402 7 359 -2 373 -3 400 -23z m-722 -858 c40 -17 75 -68 75 -109 0 -42 -26
-90 -59 -110 -78 -46 -178 4 -188 93 -5 55 22 104 70 125 41 18 60 18 102 1z
m699 0 c47 -20 76 -61 76 -108 0 -79 -49 -128 -131 -128 -33 0 -47 6 -74 33
-64 64 -51 157 25 199 41 22 60 22 104 4z"/>
</g>
</svg>
