<?xml version="1.0" standalone="no"?>
<!DOCTYPE svg PUBLIC "-//W3C//DTD SVG 20010904//EN"
 "http://www.w3.org/TR/2001/REC-SVG-20010904/DTD/svg10.dtd">
<svg
    id="wheelchair"
    version="1.0"
    xmlns="http://www.w3.org/2000/svg"
    viewBox="0 0 768.000000 768.000000"
    preserveAspectRatio="xMidYMid meet">
    <g
        stroke="none"
        fill="currentColor"
        transform="translate(0.000000,768.000000) scale(0.100000,-0.100000)">
        <path d="M2836 6725 c-194 -50 -349 -211 -387 -403 -16 -85 -7 -200 25 -297
            25 -76 30 -142 116 -1320 49 -682 93 -1259 96 -1282 l5 -43 949 0 948 0 79
            -187 c44 -104 216 -513 384 -910 167 -398 307 -723 311 -723 13 0 1013 391
            1021 399 7 7 -156 361 -166 361 -2 0 -128 -42 -279 -94 l-274 -94 -384 864
            -384 864 -882 0 -882 0 -6 88 c-4 48 -9 122 -12 165 l-6 77 646 0 646 0 -2
            238 -3 237 -672 3 -673 2 0 29 c0 16 -11 231 -25 478 -14 246 -25 466 -23 487
            3 38 4 39 57 53 73 18 176 74 238 128 220 193 232 531 27 740 -61 62 -116 96
            -200 126 -78 27 -210 33 -288 14z"
        />
        <path d="M2325 4522 c-527 -279 -890 -762 -1005 -1337 -32 -154 -39 -436 -16
            -595 114 -788 673 -1404 1447 -1594 601 -147 1228 5 1718 418 150 126 360 386
            427 528 l17 38 -78 162 c-272 562 -263 546 -270 502 -80 -467 -356 -843 -768
            -1044 -214 -104 -406 -146 -637 -137 -362 14 -667 142 -923 387 -283 271 -428
            605 -428 988 0 190 28 336 98 512 105 261 302 503 536 655 14 9 14 38 -4 280
            -10 149 -20 273 -22 277 -1 4 -42 -14 -92 -40z"
        />
    </g>
</svg>
